<!-- ?xml version="1.0" standalone="no"? -->
<svg id="sw-js-blob-svg" viewBox="0 0 100 100" xmlns="http://www.w3.org/2000/svg" version="1.1">
	<defs>
		<linearGradient id="sw-gradient" x1="0" x2="1" y1="1" y2="0">
			<stop id="stop1" stop-color="rgba(248, 117, 55, 1)" offset="0%">
			</stop>
			<stop id="stop2" stop-color="rgba(251, 168, 31, 1)" offset="100%">
			</stop>
		</linearGradient>
	</defs>
	<path filter="url(#blurMe)" fill="url(#sw-gradient)" d="M20,-24.1C26.8,-18.2,33.7,-12.7,35.7,-5.6C37.7,1.4,34.8,9.9,29.8,16.1C24.9,22.4,18,26.4,9.8,31.1C1.7,35.9,-7.7,41.4,-14.4,39.1C-21,36.8,-24.9,26.7,-28.8,17.7C-32.7,8.7,-36.5,0.8,-35.5,-6.4C-34.4,-13.6,-28.3,-20.1,-21.6,-26C-14.9,-31.9,-7.4,-37.3,-0.4,-36.8C6.6,-36.3,13.2,-30,20,-24.1Z" width="100%" height="100%" transform="translate(50 50)" stroke-width="0" style="transition: all 0.3s ease 0s;">
	</path>
</svg>
